# xmcd
#
# Track frame offsets: 
#        150
#        21913
#        55152
#        77645
#        111551
#        140549
#        163852
#        190940
#        212864
#        234140
#        253861
#        270284
#
# Disc length: 3833 seconds
#
# Revision: 0
# Processed by: cddbd v1.5.2PL0 Copyright (c) Steve Scherf et al.
# Submitted via: ExactAudioCopy v1.3
#
DISCID=a70ef70c
DTITLE=JC Smith - JC Smith in the Groove
DYEAR=2019
DGENRE=Blues
TTITLE0=Georgia on My Mind
TTITLE1=Brezzin'
TTITLE2=Alright, Okay, You Win
TTITLE3=Billie's Bounce
TTITLE4=Five Long Years
TTITLE5=I Have the Same Old Blues
TTITLE6=Isn't She Lovely
TTITLE7=Jc Boogie Woogie
TTITLE8=Good Time Charlie
TTITLE9=Everyday I Have the Blues
TTITLE10=What a Wonderful World
TTITLE11=Something You Got
EXTD=
EXTT0=
EXTT1=
EXTT2=
EXTT3=
EXTT4=
EXTT5=
EXTT6=
EXTT7=
EXTT8=
EXTT9=
EXTT10=
EXTT11=
PLAYORDER=
